<svg xmlns="http://www.w3.org/2000/svg" version="1.1" xmlns:xlink="http://www.w3.org/1999/xlink" xmlns:svgjs="http://svgjs.dev/svgjs" width="1000" height="623" viewBox="0 0 1000 623"><g transform="matrix(1,0,0,1,-0.6060606060606233,0.2522267206477409)"><svg viewBox="0 0 396 247" data-background-color="#ffffff" preserveAspectRatio="xMidYMid meet" height="623" width="1000" xmlns="http://www.w3.org/2000/svg" xmlns:xlink="http://www.w3.org/1999/xlink"><g id="tight-bounds" transform="matrix(1,0,0,1,0.2400000000000091,-0.09999999999999432)"><svg viewBox="0 0 395.52 247.2" height="247.2" width="395.52"><g><svg></svg></g><g><svg viewBox="0 0 395.52 247.2" height="247.2" width="395.52"><g transform="matrix(1,0,0,1,129.49121495327103,37.08)"><svg viewBox="0 0 136.5375700934579 173.04" height="173.04" width="136.5375700934579"><g><svg viewBox="0 0 136.5375700934579 173.04" height="173.04" width="136.5375700934579"><g><svg viewBox="0 0 136.5375700934579 173.04" height="173.04" width="136.5375700934579"><g><svg viewBox="0 0 136.5375700934579 173.04" height="173.04" width="136.5375700934579"><g><svg viewBox="0 0 136.5375700934579 173.04" height="173.04" width="136.5375700934579"><g><svg viewBox="0 0 136.5375700934579 173.04" height="173.04" width="136.5375700934579"><g transform="matrix(1,0,0,1,0,0)"><svg width="136.5375700934579" viewBox="2.049999952316284 -36.79999923706055 29.55000114440918 37.45000076293945" height="173.04" data-palette-color="#ef86c1"><path d="M11.35-2.05Q12.8-2.05 14.65-2.45L14.65-2.45 14.65 0.25Q12.9 0.65 11.35 0.65L11.35 0.65Q9 0.65 7.73 0.05 6.45-0.55 5.95-1.9 5.45-3.25 5.45-5.7L5.45-5.7 5.45-24.6 2.05-24.6 2.05-27.3 5.45-27.3 5.45-36.8 8.15-36.8 8.15-27.3 14.55-27.3 14.55-24.6 8.15-24.6 8.15-5.7Q8.15-3.55 8.83-2.8 9.5-2.05 11.35-2.05L11.35-2.05ZM28.3-2.05Q29.75-2.05 31.6-2.45L31.6-2.45 31.6 0.25Q29.85 0.65 28.3 0.65L28.3 0.65Q25.95 0.65 24.67 0.05 23.4-0.55 22.9-1.9 22.4-3.25 22.4-5.7L22.4-5.7 22.4-24.6 19-24.6 19-27.3 22.4-27.3 22.4-36.8 25.1-36.8 25.1-27.3 31.5-27.3 31.5-24.6 25.1-24.6 25.1-5.7Q25.1-3.55 25.77-2.8 26.45-2.05 28.3-2.05L28.3-2.05Z" opacity="1" transform="matrix(1,0,0,1,0,0)" fill="#ef86c1" class="undefined-text-0" data-fill-palette-color="primary" id="text-0"></path></svg></g></svg></g></svg></g></svg></g></svg></g></svg></g></svg></g><g mask="url(#8899536d-8edd-4b71-b961-be3c12d54a55)"><g transform="matrix(3.883986997968629, 0, 0, 3.883986997968629, 32.68861165960317, 1)"><svg xmlns="http://www.w3.org/2000/svg" xmlns:xlink="http://www.w3.org/1999/xlink" version="1.1" x="0" y="0" viewBox="7.5 18.434999465942383 85.0009994506836 63.131004333496094" enable-background="new 0 0 100 100" xml:space="preserve" height="63.131004333496094" width="85.0009994506836" class="icon-none" data-fill-palette-color="accent" id="none"><g fill="#d498ca" data-fill-palette-color="accent"><path d="M89.405 18.435H10.595c-1.706 0-3.095 1.389-3.095 3.095v56.941c0 1.706 1.389 3.095 3.095 3.095h78.811c1.707 0 3.095-1.389 3.095-3.095V77.14 32.027 21.529C92.5 19.823 91.112 18.435 89.405 18.435zM10.595 19.673h78.811c1.023 0 1.857 0.833 1.857 1.856v9.075c-0.068-0.01-0.136-0.021-0.207-0.021H8.951c-0.073 0-0.143 0.011-0.213 0.021v-9.076C8.738 20.506 9.571 19.673 10.595 19.673zM91.263 77.14c0 0.114-0.093 0.206-0.207 0.206H8.951c-0.113 0-0.206-0.092-0.206-0.206V32.027c0-0.113 0.093-0.206 0.206-0.206h82.104c0.114 0 0.207 0.093 0.207 0.206V77.14zM89.405 80.327H10.595c-0.992 0-1.798-0.784-1.848-1.764 0.067 0.01 0.135 0.021 0.204 0.021h82.104c0.068 0 0.133-0.011 0.197-0.02C91.202 79.544 90.396 80.327 89.405 80.327z" fill="#d498ca" data-fill-palette-color="accent"></path><path d="M28.178 27.787c1.45 0 2.63-1.18 2.63-2.63 0-1.451-1.18-2.631-2.63-2.631s-2.631 1.18-2.631 2.631C25.547 26.607 26.728 27.787 28.178 27.787zM28.178 23.765c0.768 0 1.393 0.624 1.393 1.393 0 0.768-0.625 1.393-1.393 1.393-0.769 0-1.393-0.625-1.393-1.393C26.785 24.389 27.409 23.765 28.178 23.765z" fill="#d498ca" data-fill-palette-color="accent"></path><path d="M21.458 27.787c1.451 0 2.631-1.18 2.631-2.63 0-1.451-1.18-2.631-2.631-2.631-1.45 0-2.63 1.18-2.63 2.631C18.828 26.607 20.008 27.787 21.458 27.787zM21.458 23.765c0.769 0 1.393 0.624 1.393 1.393 0 0.768-0.624 1.393-1.393 1.393-0.768 0-1.393-0.625-1.393-1.393C20.065 24.389 20.69 23.765 21.458 23.765z" fill="#d498ca" data-fill-palette-color="accent"></path><path d="M14.738 27.787c1.451 0 2.631-1.18 2.631-2.63 0-1.451-1.18-2.631-2.631-2.631-1.45 0-2.63 1.18-2.63 2.631C12.108 26.607 13.288 27.787 14.738 27.787zM14.738 23.765c0.769 0 1.393 0.624 1.393 1.393 0 0.768-0.624 1.393-1.393 1.393-0.768 0-1.393-0.625-1.393-1.393C13.346 24.389 13.971 23.765 14.738 23.765z" fill="#d498ca" data-fill-palette-color="accent"></path></g><path d="M26.598 65.915c-0.624 0-1.395-0.429-2.289-1.276-1.605-1.519-2.16-2.371-1.2-3.405l8.79-8.811-8.774-8.782c-0.676-0.676-0.57-1.195-0.401-1.57 0.242-0.544 0.814-1.117 1.479-1.781 0.829-0.829 1.542-1.542 2.241-1.542 0.342 0 0.679 0.172 1.033 0.526l11.769 11.755c0.311 0.254 0.521 0.659 0.564 1.134 0.048 0.537-0.134 1.152-0.452 1.533L27.53 65.514C27.243 65.787 26.941 65.915 26.598 65.915zM23.846 42.57c-0.009 0 0.027 0.068 0.154 0.194l9.211 9.221c0.241 0.242 0.241 0.633 0 0.875L24 62.093c-0.093 0.1-0.125 0.147-0.133 0.166 0.012 0.047 0.125 0.377 1.292 1.48 0.979 0.927 1.42 0.938 1.438 0.938v0.619l0.01-0.62c-0.001 0.001-0.001 0.001-0.001 0.001-0.003 0 0.02-0.012 0.061-0.05l11.777-11.767c0.061-0.077 0.151-0.357 0.131-0.589-0.013-0.145-0.063-0.246-0.162-0.328L26.601 40.148c-0.144-0.143-0.215-0.171-0.215-0.171-0.182 0.06-0.886 0.764-1.307 1.184-0.531 0.532-1.077 1.078-1.227 1.413C23.85 42.571 23.848 42.57 23.846 42.57z" fill="#d498ca" data-fill-palette-color="accent"></path><path d="M55.834 71.436H40.498c-1.594 0-1.92-1.234-1.92-3.088s0.326-3.088 1.92-3.088h15.336c1.503 0 1.787 1.085 1.787 3.088C57.621 70.396 57.346 71.436 55.834 71.436zM40.498 66.497c-0.366 0-0.683 0-0.683 1.851s0.316 1.851 0.683 1.851h15.336c0.354 0 0.55 0 0.55-1.851s-0.219-1.851-0.55-1.851H40.498z" fill="#d498ca" data-fill-palette-color="accent"></path></svg></g></g></svg></g><defs><mask id="8899536d-8edd-4b71-b961-be3c12d54a55"><rect width="640" height="400" fill="white"></rect><rect width="150.1913271028037" height="254.74118208" fill="black" x="244.90433644859814" y="72.62940896" id="transform-me" transform="matrix(1,0,0,1,-122.24000000000001,-76.4)"></rect></mask></defs></svg><rect width="395.52" height="247.2" fill="none" stroke="none" visibility="hidden"></rect></g></svg></g></svg>